<svg 
  xmlns="http://www.w3.org/2000/svg" 
  xmlns:xlink="http://www.w3.org/1999/xlink" 
  style="position: absolute; top: 0; left: 0;" 
  viewBox="0 0 396 115" 
  preserveAspectRatio="xMidYMid meet" 
  xml:space="preserve">
<g transform="matrix(0.15194002671933626,0,0,0.15194002671933626,-10.775990981157546,-6.932718129550017)" fill="#fe1817">
<path fill="#FE1817" d="M173.905,321.45c5.64-5.647,5.64-14.798-0.007-20.445c-5.646-5.64-14.794-5.644-20.441,0.003 
c-28.531,28.538-14.675,92.475,29.66,136.813c2.823,2.823,6.522,4.235,10.221,4.235s7.397-1.412,10.221-4.221 
c5.647-5.647,5.647-14.81,0.007-20.456C165.823,379.634,160.712,334.643,173.905,321.45z">
</path>
<path fill="#FE1817" d="M407.071,424.142c-3.177-1.072-6.423-1.976-9.685-2.809c-8.378-54.68-30.38-109.765-59.193-138.582 
c-34.509-34.513-77.292-56.843-120.469-62.875c-44.674-6.24-84.52,5.555-112.183,33.221 
c-55.96,55.957-42.662,160.315,29.661,232.637c13.446,13.454,28.432,25.072,44.229,34.686 
c19.962,214.102,306.286,233.753,309.209,233.922c0.282,0.015,0.571,0.028,0.861,0.028c0.466,0,0.932-0.028,1.391-0.07 
c2.731-0.269,67.374-7.229,119.127-74.821c60.083-78.463,76.953-202.355,50.413-368.109c41.095-25.273,68.645-70.53,68.645-122.213 
c0-79.141-64.389-143.529-143.529-143.529s-143.529,64.389-143.529,143.529c0,53.232,29.194,99.689,72.351,124.468 
c-58.262,50.155-52.078,106.155-43.474,156.976C454.802,448.96,432.856,432.824,407.071,424.142z M470.931,189.158 
c0-63.199,51.422-114.617,114.617-114.617s114.617,51.418,114.617,114.617c0,63.203-51.422,114.621-114.617,114.621 
S470.931,252.36,470.931,189.158z M463.61,594.621c-0.007,0-0.007,0.015-0.014,0.028c0,0,0,0,0,0.014 
c-0.015,0.028-0.015,0.057-0.021,0.085c-0.289,0.89-0.501,1.793-0.614,2.711c-0.057,0.409-0.028,0.805-0.042,1.214 
c-0.028,0.536-0.07,1.059-0.042,1.581c0.035,0.494,0.155,0.96,0.239,1.44c0.071,0.438,0.113,0.889,0.227,1.313 
c0.112,0.438,0.311,0.861,0.466,1.284c0.169,0.452,0.296,0.904,0.508,1.327c0.184,0.382,0.438,0.721,0.656,1.087 
c0.262,0.438,0.494,0.876,0.798,1.285c0.311,0.409,0.691,0.763,1.045,1.144c0.282,0.296,0.536,0.635,0.854,0.918 
c0.671,0.593,1.412,1.129,2.202,1.608c0.043,0.028,0.078,0.057,0.12,0.085l0,0c0.833,0.494,1.736,0.903,2.696,1.229 
c0.128,0.042,0.255,0.028,0.389,0.057c1.391,0.438,2.795,0.706,4.207,0.706c0.007,0,0.007,0,0.007,0s0,0,0.007,0 
c0.021,0,0.043-0.015,0.063-0.015c1.362-0.014,2.696-0.24,3.995-0.621c0.424-0.127,0.805-0.339,1.215-0.494 
c0.875-0.353,1.708-0.734,2.506-1.257c0.43-0.268,0.812-0.578,1.214-0.903c0.678-0.536,1.299-1.144,1.885-1.821 
c0.353-0.423,0.698-0.832,1.017-1.298c0.176-0.269,0.416-0.467,0.578-0.749c26.216-44.751,18.494-89.418,11.025-132.631 
c-9.486-54.901-17.702-102.537,43.665-147.323c13.03,3.903,26.809,6.067,41.088,6.067c16.722,0,32.71-3.021,47.646-8.301 
c22.863,150.814,7.291,267.069-45.549,336.751c-41.053,54.153-90.548,63.132-98.503,64.247 
c-18.875-1.482-246.578-23.109-278.144-188.916c9.211,3.727,18.564,6.748,27.938,8.992c1.122,0.269,2.245,0.396,3.36,0.396 
c6.536,0,12.465-4.475,14.046-11.11c1.85-7.765-2.943-15.571-10.715-17.42c-32.13-7.652-64.092-26.132-89.983-52.036 
c-61.042-61.043-74.348-147.066-29.66-191.754c21.105-21.095,52.262-29.996,87.738-25.03c36.987,5.17,73.932,24.588,104.03,54.683 
c38.949,38.953,64.219,138.497,51.02,200.952c-1.652,7.82,3.346,15.486,11.152,17.138c7.807,1.638,15.487-3.346,17.138-11.152 
c3.664-17.35,4.708-37.016,3.614-57.471c25.856,9.557,46.644,28.827,58.657,54.731C471.891,534.496,473.408,565.469,463.61,594.621 z">
</path>
<path fill="#FE1817" d="M635.487,189.158c0-27.539-22.404-49.946-49.939-49.946s-49.946,22.407-49.946,49.946 
c0,27.54,22.411,49.947,49.946,49.947S635.487,216.697,635.487,189.158z M564.514,189.158c0-11.597,9.437-21.035,21.034-21.035 
s21.027,9.438,21.027,21.035c0,11.598-9.43,21.035-21.027,21.035S564.514,200.755,564.514,189.158z">
</path>
<path fill="#FE1817" d="M320.971,607.482c-6.261-4.941-15.353-3.868-20.301,2.399c-4.941,6.269-3.868,15.359,2.4,20.301 
c31.961,25.199,74.038,44.215,125.072,56.539c1.144,0.282,2.279,0.409,3.409,0.409c6.521,0,12.437-4.446,14.039-11.067 
c1.871-7.751-2.901-15.571-10.658-17.449C402.646,650.821,356.673,635.617,320.971,607.482z">
</path>
<path fill="#FE1817" d="M540.944,489.18c0.72,0,1.447-0.057,2.174-0.169c7.892-1.187,13.327-8.556,12.142-16.446 
c-5.521-36.635-5.125-66.774,14.78-94.78c4.616-6.508,3.092-15.532-3.416-20.156c-6.494-4.616-15.529-3.099-20.159,3.409 
c-27.007,38.021-25.475,78.139-19.793,115.832C527.752,484.041,533.914,489.18,540.944,489.18z">
</path>
</g>
<g transform="matrix(2.4255595708488715,0,0,2.4255595708488715,120.00000057829847,-17.55435589209339)" fill="#000000">
<path d="M9.4 21.24 l0 3.76 l-5.64 0 l0 14.92 l-3.76 0 l0 -28.48 l9.32 0 l0 3.8 l-5.56 0 l0 6 l5.64 0 z M15.707 11.36 
l0 28.48 l-3.8 0 l0 -28.48 l3.8 0 z M32.054 11.36 l0 3.84 l-4.76 0 l0 24.84 l-3.84 0 l0 -24.84 l-5.24 0 l0 -3.84 l13.84 
0 z M43.881 23.04 c0.88 0.88 1.44 2.08 1.44 3.4 l0 8.76 c0 2.64 -2.16 4.8 -4.8 4.8 l-5.92 0 l-0.04 -28.48 l5.28 0 c2.92 
0.12 4.64 2.92 4.6 5.56 l-0.04 3.96 c0 0.72 -0.2 1.4 -0.52 2 z M40.521 36.16 c0.56 0 1 -0.44 1 -0.96 l-0.04 -8.76 c0 
-0.56 -0.44 -0.96 -0.96 -0.96 l-2.12 0 l0 10.68 l2.12 0 z M38.361 15.32 l0 6.32 l1.6 0 c0.32 0 0.64 -0.28 0.64 -0.64 
l0.04 -3.96 c0 -0.8 -0.4 -1.68 -0.96 -1.72 l-1.32 0 z M53.26800000000001 40.08 c-3.24 0 -5.88 -2.64 -5.88 -5.88 l0 
-22.72 l3.8 0 l0 22.72 c0 1.16 0.92 2.12 2.08 2.12 s2.08 -0.96 2.08 -2.12 l0 -22.72 l3.8 0 l0 22.72 c0 3.24 -2.64 
5.88 -5.88 5.88 z M66.655 40.04 l-5 0 l0 -28.52 l5 0 c3.4 0 6.12 2.76 6.12 6.16 l0 16.2 c0 1.64 -0.64 3.2 -1.8 4.36 
s-2.68 1.8 -4.32 1.8 z M65.455 15.36 l0 20.84 l1.2 0 c0.6 0 1.2 -0.24 1.64 -0.68 s0.68 -1 0.68 -1.64 l0 -16.2 c0 -1.28 
-1.04 -2.32 -2.32 -2.32 l-1.2 0 z M80.282 40.04 l-5 0 l0 -28.52 l5 0 c3.4 0 6.12 2.76 6.12 6.16 l0 16.2 c0 1.64 -0.64 
3.2 -1.8 4.36 s-2.68 1.8 -4.32 1.8 z M79.082 15.36 l0 20.84 l1.2 0 c0.6 0 1.2 -0.24 1.64 -0.68 s0.68 -1 0.68 -1.64 l0 
-16.2 c0 -1.28 -1.04 -2.32 -2.32 -2.32 l-1.2 0 z M103.06899999999999 11.440000000000001 l-5.36 17.36 l0 11.2 l-3.88 0 
l0 -11.24 l-4.92 -17.32 l4 0 l2.92 10.28 l3.2 -10.28 l4.04 0 z">
</path>
</g>
<g transform="matrix(0.5641263792522416,0,0,0.5641263792522416,145,86.96499947707096)" fill="#545454">
<path d="M6.92 5.68 l0 1.92 l-2.38 0 l0 12.42 l-1.92 0 l0 -12.42 l-2.62 0 l0 -1.92 l6.92 0 z M24.200499999999998 
20.04 l-2.04 0 l-1.1 -3.02 l-0.44 0 l0 3.02 l-1.9 0 l0 -14.32 l2.98 0 c1.32 0 2.38 1.06 2.38 2.38 l0 6.54 c0 0.86 -0.44 
1.6 -1.12 2.02 z M20.620499999999996 7.619999999999999 l0 7.5 l1.08 0 c0.26 0 0.48 -0.22 0.48 -0.48 l0 -6.54 c0 -0.26 
-0.22 -0.48 -0.48 -0.48 l-1.08 0 z M41.101 20 l-0.72 -4.94 l-2.02 0 l-0.66 4.94 l-1.92 0 l2.16 -14.3 l2.58 0 l2.5 14.3 
l-1.92 0 z M38.620999999999995 13.16 l1.48 0 l-0.76 -5.2 z M57.601499999999994 19.96 c-1.48 0 -2.68 -1.2 -2.68 -2.68 l0 
-8.88 c0 -1.48 1.2 -2.68 2.68 -2.68 s2.68 1.2 2.68 2.68 l0 0.8 l-1.9 0 l0 -0.8 c0 -0.42 -0.36 -0.78 -0.78 -0.78 s-0.78 
0.36 -0.78 0.78 l0 8.88 c0 0.42 0.36 0.78 0.78 0.78 s0.78 -0.36 0.78 -0.78 l0 -1.28 l1.9 0 l0 1.28 c0 1.48 -1.2 2.68 
-2.68 2.68 z M76.442 19.92 l-2.1 -7.88 l-0.3 0.5 l0 7.44 l-1.86 0 l0 -14.26 l1.86 0 l0 3.1 l1.24 -3.1 l2.3 0 l-1.9 4.12 
l2.7 10.08 l-1.94 0 z M91.96249999999999 21.2 l-0.24 0 l-0.4 -1.2 l-1.04 0 l0 -1.84 l1.68 0 l0 3.04 z 
M121.50349999999997 20.12 c-1.52 0 -2.74 -1.24 -2.74 -2.74 l0 -2.18 l1.94 0 l0 2.18 c0 0.44 0.36 0.8 0.8 0.8 s0.78 
-0.36 0.78 -0.8 l0 -1.9 l-3.52 -4.86 l0 -2.48 c0 -1.52 1.22 -2.76 2.74 -2.76 c1.5 0 2.72 1.24 2.72 2.76 l0 2.16 l-1.94 
0 l0 -2.16 c0 -0.46 -0.34 -0.8 -0.78 -0.8 s-0.8 0.34 -0.8 0.8 l0 1.82 l3.52 4.86 l0 2.56 c0 1.5 -1.22 2.74 -2.72 2.74 
z M139.72399999999996 5.720000000000001 l1.9 0 l0 14.26 l-1.9 0 l0 -7.54 l-1.7 0 l0 7.54 l-1.9 0 l0 -14.26 l1.9 0 l0 
4.84 l1.7 0 l0 -4.84 z M158.50449999999995 20 l-0.72 -4.94 l-2.02 0 l-0.66 4.94 l-1.92 0 l2.16 -14.3 l2.58 0 l2.5 14.3 
l-1.92 0 z M156.02449999999996 13.16 l1.48 0 l-0.76 -5.2 z M177.52499999999995 20.04 l-2.04 0 l-1.1 -3.02 l-0.44 0 l0 
3.02 l-1.9 0 l0 -14.32 l2.98 0 c1.32 0 2.38 1.06 2.38 2.38 l0 6.54 c0 0.86 -0.44 1.6 -1.12 2.02 z M173.94499999999996 
7.619999999999999 l0 7.5 l1.08 0 c0.26 0 0.48 -0.22 0.48 -0.48 l0 -6.54 c0 -0.26 -0.22 -0.48 -0.48 -0.48 l-1.08 0 z 
M194.08549999999994 12.46 l-2.76 0 l0 5.64 l2.78 0 l0 1.9 l-4.68 0 l0 -14.28 l4.68 0 l0 1.9 l-2.78 0 l0 2.94 l2.76 0 
l0 1.9 z M207.68599999999995 21.2 l-0.24 0 l-0.4 -1.2 l-1.04 0 l0 -1.84 l1.68 0 l0 3.04 z M239.80699999999993 20 l-0.72 
-4.94 l-2.02 0 l-0.66 4.94 l-1.92 0 l2.16 -14.3 l2.58 0 l2.5 14.3 l-1.92 0 z M237.32699999999994 13.16 l1.48 0 l-0.76 
-5.2 z M256.30749999999995 19.96 c-1.48 0 -2.68 -1.2 -2.68 -2.68 l0 -8.88 c0 -1.48 1.2 -2.68 2.68 -2.68 s2.68 1.2 2.68 
2.68 l0 0.8 l-1.9 0 l0 -0.8 c0 -0.42 -0.36 -0.78 -0.78 -0.78 s-0.78 0.36 -0.78 0.78 l0 8.88 c0 0.42 0.36 0.78 0.78 0.78 
s0.78 -0.36 0.78 -0.78 l0 -1.28 l1.9 0 l0 1.28 c0 1.48 -1.2 2.68 -2.68 2.68 z M274.48799999999994 5.720000000000001 
l1.9 0 l0 14.26 l-1.9 0 l0 -7.54 l-1.7 0 l0 7.54 l-1.9 0 l0 -14.26 l1.9 0 l0 4.84 l1.7 0 l0 -4.84 z M290.1884999999999 
5.68 l0 14.24 l-1.9 0 l0 -14.24 l1.9 0 z M306.74899999999997 12.46 l-2.76 0 l0 5.64 l2.78 0 l0 1.9 l-4.68 0 l0 -14.28 
l4.68 0 l0 1.9 l-2.78 0 l0 2.94 l2.76 0 l0 1.9 z M322.6495 20 l-1.98 0 l-2 -14.28 l1.92 0 l1.04 7.36 l0.96 -7.36 l1.92 
0 z M340.93 12.46 l-2.76 0 l0 5.64 l2.78 0 l0 1.9 l-4.68 0 l0 -14.28 l4.68 0 l0 1.9 l-2.78 0 l0 2.94 l2.76 0 l0 1.9 z 
M354.5305 20 l-1.68 0 l0 -1.84 l1.68 0 l0 1.84 z">
</path>
</g>
</svg>

